# xmcd
#
# Track frame offsets:
#	150
#	17041
#	33173
#	45892
#	60749
#	81803
#	95562
#	114634
#	132908
#	151332
#	170302
#
# Disc length: 2494 seconds
#
# Revision: 0
# Processed by: cddbd v1.5.1PL0 Copyright (c) Steve Scherf et al.
# Submitted via: dBpowerAMP V4.0
#
DISCID=7e09bc0b
DTITLE=Pete Harris - Convertible Days
DYEAR=2002
DGENRE=
TTITLE0=Remain The Same
TTITLE1=Cross That Bridge
TTITLE2=Pour Me A Vacation
TTITLE3=Peace and Quiet
TTITLE4=Sundays on the Sandbar
TTITLE5=Summertime in August
TTITLE6=The Harley Song
TTITLE7=St. Somewhere
TTITLE8=Convertible Days
TTITLE9=Livin' Long
TTITLE10=Mainline Florida
EXTD=
EXTT0=
EXTT1=
EXTT2=
EXTT3=
EXTT4=
EXTT5=
EXTT6=
EXTT7=
EXTT8=
EXTT9=
EXTT10=
PLAYORDER=
